<?xml version="1.0" encoding="UTF-8" standalone="no"?>
<!-- Created with Inkscape (http://www.inkscape.org/) -->

<svg
   width="210mm"
   height="297mm"
   viewBox="0 0 210 297"
   version="1.1"
   id="svg1"
   inkscape:version="1.3.2 (091e20e, 2023-11-25, custom)"
   sodipodi:docname="potion-bottle.svg"
   inkscape:export-filename="potion-bottle.png"
   inkscape:export-xdpi="42.675423"
   inkscape:export-ydpi="42.675423"
   xmlns:inkscape="http://www.inkscape.org/namespaces/inkscape"
   xmlns:sodipodi="http://sodipodi.sourceforge.net/DTD/sodipodi-0.dtd"
   xmlns="http://www.w3.org/2000/svg"
   xmlns:svg="http://www.w3.org/2000/svg">
  <sodipodi:namedview
     id="namedview1"
     pagecolor="#ffffff"
     bordercolor="#000000"
     borderopacity="0.25"
     inkscape:showpageshadow="2"
     inkscape:pageopacity="0.0"
     inkscape:pagecheckerboard="0"
     inkscape:deskcolor="#d1d1d1"
     inkscape:document-units="mm"
     inkscape:zoom="1.0520974"
     inkscape:cx="397.30163"
     inkscape:cy="561.25984"
     inkscape:window-width="2560"
     inkscape:window-height="1377"
     inkscape:window-x="-8"
     inkscape:window-y="-8"
     inkscape:window-maximized="1"
     inkscape:current-layer="layer1" />
  <defs
     id="defs1" />
  <g
     inkscape:label="Layer 1"
     inkscape:groupmode="layer"
     id="layer1">
    <path
       style="fill:#b3b3b3;stroke:#000000;stroke-width:1.665"
       d="m 79.719727,79.216765 c 0,0 12.322609,23.639285 0.754446,35.961895 -11.568162,12.32261 -7.292972,83.49196 -7.292972,83.49196 l 68.906009,-0.50297 c 0,0 -11.14659,-83.40716 -16.5978,-84.24639 -10.52063,-1.61969 -16.0402,-37.190586 -0.50296,-35.961904 13.32484,1.053725 2.7663,-10.562235 2.7663,-10.562235 l -54.571549,1.760371 c 0,0 -7.795934,14.334463 6.538526,10.059273 z"
       id="path1"
       sodipodi:nodetypes="csccssccc" />
    <path
       style="fill:none;stroke:#008000;stroke-width:1.665"
       d="m 90.784928,178.30059 c 0.638661,-6.76587 -0.251482,-13.57217 -0.251482,-20.37003 0,-2.03667 -0.232425,-4.326 0.502963,-6.28704 0.106124,-0.283 0.383905,-0.47664 0.502962,-0.75444 0.43561,-1.01642 0.691491,-2.02743 1.257411,-3.01779 0.659821,-1.15468 0.455832,-0.5318 1.50889,-1.76037 1.013013,-1.18185 1.996175,-2.35992 3.269263,-3.26926 0.305059,-0.2179 0.694002,-0.29502 1.005927,-0.50297 0.995487,-0.38913 1.436388,-1.43299 2.263338,-2.01185 0.46068,-0.32248 1.03447,-0.45254 1.50889,-0.75445 0.45284,-0.28817 0.80457,-0.71775 1.25741,-1.00592 1.70317,-1.08384 6.00922,-3.01778 8.04741,-3.01778"
       id="path2" />
    <path
       style="fill:none;stroke:#008000;stroke-width:1.665"
       d="m 91.539371,159.18797 c 0.202726,0.90223 1.32434,1.28514 1.760373,2.01186 0.136385,0.22731 0.06404,0.567 0.251482,0.75444 2.142942,2.14295 -1.112073,-3.05126 1.760373,1.25741 0.520324,0.78049 -0.8544,0.32725 0.502962,1.00593 0.149956,0.075 0.340315,-0.0407 0.502965,0 1.624238,0.40606 2.934481,0.14657 4.526674,-0.25148 0.86223,-0.21556 1.72045,0.1457 2.51482,-0.25148 0.76691,-0.38346 -0.45995,-0.19937 0.75444,-0.50297 0.38806,-0.097 0.69436,0.0712 0.50297,-0.50296 -0.17279,-0.51835 -0.62901,-1.38345 -1.00593,-1.76037 -0.13254,-0.13255 -0.37042,-0.11894 -0.50297,-0.25148 -0.37722,-0.37723 -0.37722,-1.13167 -0.75444,-1.5089 -0.13254,-0.13254 -0.37042,-0.11893 -0.50296,-0.25148 -0.92692,-0.92692 -1.63827,-2.26576 -2.766303,-3.01778 -0.139499,-0.093 -0.343913,0.053 -0.502965,0 -1.821587,-0.60719 0.396489,0.0725 -0.754446,-0.50296 -0.22493,-0.11247 -0.515869,0.0795 -0.754443,0 -0.112467,-0.0375 -0.14545,-0.19847 -0.251484,-0.25148 -0.356246,-0.17813 -0.893152,-0.13007 -1.257409,-0.25149 -0.355647,-0.11855 -0.66135,-0.35528 -1.005927,-0.50296 -0.535916,-0.22968 -2.766298,-0.88072 -2.766298,-1.25741"
       id="path3" />
    <path
       style="fill:none;stroke:#008000;stroke-width:1.665"
       d="m 97.323454,144.60203 c 1.925973,2.52895 3.855596,5.20887 6.287046,7.29297 0.45896,0.3934 1.04451,0.61895 1.50889,1.00593 0.45536,0.37947 0.79455,0.88712 1.25741,1.25741 0.47202,0.37762 1.0253,0.64323 1.50889,1.00593 0.88086,0.66064 1.6693,1.55873 2.51482,2.26333 0.0623,0.0519 1.11129,0.96517 1.2574,1.25741 0.0375,0.075 -0.0593,0.19221 0,0.25148 0.38382,0.38381 1.89789,-0.44598 2.01186,-0.50296 0.795,-0.3975 0.366,-0.0348 0.75445,-1.00593 0.13922,-0.34807 0.41204,-0.64223 0.50296,-1.00592 0.34001,-1.36004 -0.70191,-2.6875 -1.25741,-3.52075 -0.15315,-0.22973 -0.21466,-0.61029 -0.50296,-0.75445 -0.075,-0.0375 -0.19221,0.0593 -0.25148,0 -0.0593,-0.0593 0.0375,-0.1765 0,-0.25148 -0.13517,-0.27033 -0.31416,-0.51843 -0.50297,-0.75444 -0.76743,-0.95929 -1.63755,-1.42701 -2.51482,-2.01186 -0.19728,-0.13152 -0.29965,-0.38097 -0.50296,-0.50296 -0.53338,-0.32003 -1.22241,-0.39581 -1.76037,-0.75445 -0.37205,-0.24802 -0.60779,-0.80686 -1.00593,-1.00592 -0.39435,-0.19718 -0.57229,-0.49427 -1.00593,-0.75445 -0.22731,-0.13638 -0.54237,-0.0924 -0.75444,-0.25148 -0.66388,-0.49791 -1.04879,-1.33342 -1.76038,-1.76037 -1.12324,-0.67395 -2.71647,-1.25741 -4.023703,-1.25741"
       id="path4" />
    <path
       style="fill:none;stroke:#008000;stroke-width:1.665"
       d="m 108.64014,136.55461 c 1.29288,1.87003 2.3657,3.85902 3.52074,5.78408 0.73319,1.22199 1.22137,2.58651 2.01185,3.77223 0.53833,0.80748 1.22205,1.45586 1.76037,2.26334 0.27114,0.4067 0.44911,0.87572 0.75445,1.25741 0.0547,0.0684 1.46986,0.73493 1.50889,0.75444 0.93806,0.46903 4.0245,2.76552 5.28112,1.50889 0.13254,-0.13254 0.11894,-0.37042 0.25148,-0.50296 0.13255,-0.13254 0.39899,-0.0955 0.50296,-0.25148 0.25221,-0.37831 0.40469,-3.31263 0.25149,-3.77223 -0.11855,-0.35565 -0.41204,-0.64223 -0.50297,-1.00593 -0.2819,-1.1276 0.0575,-2.3998 -0.50296,-3.52074 -0.27033,-0.54067 -0.73559,-0.96822 -1.00593,-1.50889 -0.3712,-0.74241 -0.74391,-1.57867 -1.25741,-2.26334 -0.39538,-0.52717 -0.8492,-0.59772 -1.00592,-0.75444 -0.13255,-0.13255 -0.0838,-0.41914 -0.25149,-0.50297 -0.22493,-0.11246 -0.50784,0.0493 -0.75444,0 -0.49242,-0.0985 -0.85115,-0.55132 -1.25741,-0.75444 -0.60797,-0.30399 -1.11577,-0.26124 -1.76037,-0.50297 -3.49853,-1.31195 3.53115,0.56844 -3.77223,-1.25741 -0.39448,-0.0986 -0.86293,0.0986 -1.25741,0 -1.15588,-0.28897 -0.0571,-0.25148 -0.75444,-0.25148"
       id="path5" />
    <path
       style="fill:none;stroke:#008000;stroke-width:1.665"
       d="m 89.779,151.895 c -1.038569,-2.87457 -3.623323,-4.98877 -5.784082,-7.04149 -1.527165,-1.45081 -3.169997,-2.68358 -4.778153,-4.02371 -0.273217,-0.22768 -0.436343,-0.59539 -0.754446,-0.75444 -1.470785,-0.73539 -2.011855,3.75798 -2.011855,4.52667 0,1.65802 -0.117771,3.4778 0.502965,5.02964 0.606968,1.51741 1.540907,2.30335 2.514817,3.52074 0.117094,0.14637 0.118938,0.37042 0.251481,0.50296 0.536184,0.53619 1.368476,0.87139 2.011855,1.25741 0.09131,0.0548 0.992092,0.71023 1.257408,0.75445 0.126979,0.0212 1.979978,0.18891 2.263339,0 0.197276,-0.13152 0.305683,-0.37144 0.502962,-0.50296 0.336603,-0.22441 0.89145,-0.31999 1.257409,-0.50297 1.176189,-0.58809 2.130446,-1.70654 2.7663,-2.7663 z"
       id="path6" />
    <path
       style="fill:none;stroke:#008000;stroke-width:1.665"
       d="m 95.814561,143.84759 c -1.278122,-1.3338 -2.592599,-2.60132 -4.023706,-3.77223 -0.324395,-0.26541 -0.733158,-0.43622 -1.005927,-0.75445 -0.243975,-0.28463 -0.304274,-0.68802 -0.502965,-1.00592 -1.101085,-1.76174 -2.352323,-3.44724 -3.269263,-5.28112 -0.302245,-0.60449 -0.63104,-1.19805 -1.005928,-1.76037 -0.131519,-0.19728 -0.414906,-0.28283 -0.502962,-0.50297 -0.0934,-0.23349 0.07953,-0.51587 0,-0.75444 -0.09558,-0.28674 -0.390713,-0.47382 -0.502965,-0.75445 -0.13997,-0.34992 -0.130199,-1.62125 0,-2.01185 0.335309,-1.00593 0.08383,-0.0838 0.754446,-0.75445 0.132543,-0.13254 0.118938,-0.37042 0.251481,-0.50296 0.629253,-0.62926 1.793457,-1.27947 2.51482,-1.76038 0.295918,-0.19727 0.436343,-0.59539 0.754443,-0.75444 1.011378,-0.50569 2.157061,-0.75445 3.269263,-0.75445 0.251484,0 0.529514,-0.11246 0.754446,0 0.213961,0.10698 1.915674,2.98072 2.011855,3.26927 0.05302,0.15905 0,0.33531 0,0.50296 0.08383,0.25148 0.147061,0.51079 0.251481,0.75445 0.879007,2.05101 1.576909,4.11231 2.011855,6.28704 0.193447,0.96724 -0.193448,2.05055 0,3.01778 0.222721,1.11361 0.540483,2.61623 0.251481,3.77223 -0.129421,0.51769 -0.373541,0.9912 -0.502962,1.50889 -0.05992,0.23966 0.216027,2.51482 -0.251481,2.51482 -0.451425,0 -1.089756,-0.9221 -1.257412,-0.50296 -0.237098,0.59274 0.502965,1.17358 0.754447,1.76037"
       id="path7" />
    <path
       style="fill:none;stroke:#008000;stroke-width:1.665"
       d="m 108.64014,135.80017 c 0.25024,-2.20767 2.59533,-2.75637 3.26926,-4.77816 0.0795,-0.23857 -0.0228,-0.50399 0,-0.75444 0.13617,-1.49787 0.25148,-2.78436 0.25148,-4.27519 0,-1.21842 0.30569,-3.55538 0,-4.77816 -0.0288,-0.11501 -0.22273,-0.13647 -0.25148,-0.25148 -0.061,-0.24397 0.0795,-0.51587 0,-0.75444 -0.27044,-0.81132 -0.57649,-0.54557 -0.75445,-1.25741 -0.0725,-0.28993 -0.0356,-1.04152 -0.25148,-1.25741 -0.13254,-0.13254 -0.3905,-0.10153 -0.50296,-0.25148 -0.15906,-0.21207 -0.13294,-0.51735 -0.25149,-0.75445 -0.31714,-0.63428 -1.67523,-1.02216 -2.26333,-1.25741 -0.53098,-0.21239 -1.1627,-0.70219 -1.76037,-0.50296 -0.73753,0.24584 -1.3797,0.87811 -2.01186,1.25741 -0.22731,0.13638 -0.54238,0.0924 -0.75444,0.25148 -0.0858,0.0643 -1.2267,2.10979 -1.25741,2.26334 -0.0986,0.49319 0.0711,1.01098 0,1.50889 -0.0845,0.59123 -0.55772,2.65678 -0.25148,3.26926 0.39511,0.79023 0.58697,0.16857 0.75444,1.00593 0.0493,0.2466 -0.0493,0.50784 0,0.75444 0.30342,1.51709 0.11962,-0.2039 0.50296,0.75445 0.12837,0.32091 0.14219,0.67803 0.25149,1.00593 0.27718,0.83155 0.32401,0.25306 0.75444,1.2574 0.32902,0.76772 0.31451,1.78159 0.75445,2.51482 0.12198,0.20331 0.38097,0.29965 0.50296,0.50297 0.50718,0.84529 -0.006,0.57884 0.50296,1.2574 0.98848,1.31797 1.40488,2.18013 2.76631,3.26927 z"
       id="path8" />
  </g>
</svg>
